<svg width="42" height="42" viewBox="0 0 42 42" fill="none" xmlns="http://www.w3.org/2000/svg">
<mask id="path-1-inside-1_392_396" fill="white">
<path d="M0 37.2099C0 37.3885 0.144664 37.533 0.323087 37.533H8.34162C8.34328 37.533 8.34466 37.534 8.34631 37.534H11.3026C11.4715 40.0254 13.5647 42.0023 16.1201 42.0023C18.6783 42.0023 20.7737 40.0254 20.9428 37.534H23.9668C25.36 37.534 26.4933 36.411 26.4933 35.0307V17.2763C26.4933 14.1322 23.9121 11.5743 20.7393 11.5743H8.6694V3.06933C8.6694 1.37691 7.27956 0 5.57104 0H0.323087C0.144664 0 0 0.144506 0 0.323087V37.2099ZM16.1201 41.3561C13.8109 41.3561 11.9323 39.4965 11.9323 37.2109C11.9323 34.9253 13.8109 33.0656 16.1201 33.0656C18.4322 33.0656 20.3132 34.9253 20.3132 37.2109C20.3132 39.4965 18.4322 41.3561 16.1201 41.3561ZM13.5697 12.2205H20.7393C23.5557 12.2205 25.8471 14.4884 25.8471 17.2763V25.4658H18.3601C15.7186 25.4658 13.5697 23.3412 13.5697 20.7296V12.2205ZM8.6694 12.2205H12.9235V20.7296C12.9235 23.6974 15.3624 26.112 18.3601 26.112H25.8471V29.1715H8.6694V12.2205ZM8.6694 29.8177H25.8471V35.0307C25.8471 36.0548 25.0036 36.8878 23.9668 36.8878H20.9428C20.7737 34.3965 18.6783 32.4195 16.1201 32.4195C13.5647 32.4195 11.4715 34.3965 11.3026 36.8878H8.6694V29.8177ZM0.646174 0.646174H5.57104C6.92318 0.646174 8.02322 1.73312 8.02322 3.06933V11.8974V29.1715H0.646174V0.646174ZM0.646174 29.8177H8.02322V36.8868H0.646174V29.8177ZM41.6789 22.9458H40.0775C39.9691 22.9458 39.8681 23.0001 39.8082 23.0903L35.0731 30.2307L27.8166 32.4813C27.6814 32.5233 27.5892 32.6482 27.5892 32.7899V38.5745C27.5892 38.7531 27.7339 38.8976 27.9123 38.8976H31.6036C31.7665 40.6364 33.2329 42.0023 35.0136 42.0023C36.7943 42.0023 38.2609 40.6364 38.4238 38.8976H41.6774C41.8559 38.8976 42.0005 38.7531 42.0005 38.5745V30.5107C42.0006 30.5082 42.002 30.5062 42.002 30.5037V23.2689C42.002 23.0903 41.8573 22.9458 41.6789 22.9458ZM28.2354 34.4959H28.9242C29.2742 34.4959 29.5592 34.7808 29.5592 35.131C29.5592 35.4809 29.2742 35.7658 28.9242 35.7658H28.2354V34.4959ZM35.0136 41.3561C33.4807 41.3561 32.2335 40.1089 32.2335 38.5758C32.2335 37.043 33.4807 35.7958 35.0136 35.7958C36.5443 35.7958 37.7896 37.0392 37.7935 38.5685C37.7935 38.5707 37.7924 38.5725 37.7924 38.5745C37.7924 38.5769 37.7936 38.5788 37.7937 38.5811C37.7908 40.1117 36.5449 41.3561 35.0136 41.3561ZM41.3544 38.2514H38.4237C38.2596 36.5139 36.7934 35.1496 35.0136 35.1496C33.2338 35.1496 31.7678 36.5139 31.6037 38.2514H28.2354V36.412H28.9242C29.6306 36.412 30.2053 35.8374 30.2053 35.131C30.2053 34.4246 29.6306 33.8497 28.9242 33.8497H28.2354V33.0281L35.3272 30.8283H41.3544V38.2514ZM41.3558 30.1806H35.8818L40.2508 23.592H41.3558V30.1806ZM27.6516 24.7364C27.478 24.7783 27.3712 24.9528 27.413 25.1263L27.9278 27.2655C27.9634 27.4135 28.0958 27.5129 28.2416 27.5129C28.2667 27.5129 28.292 27.51 28.3174 27.5041C28.491 27.4621 28.5978 27.2876 28.556 27.1141L28.0412 24.9749C27.9994 24.8014 27.8246 24.6953 27.6516 24.7364ZM30.9201 25.1825L30.1044 27.2255C30.0383 27.3914 30.1189 27.5791 30.2847 27.6454C30.324 27.6612 30.3645 27.6684 30.4043 27.6684C30.5327 27.6684 30.654 27.5914 30.7045 27.4652L31.5202 25.4223C31.5863 25.2566 31.5057 25.0686 31.3401 25.0023C31.1738 24.9354 30.9862 25.0172 30.9201 25.1825Z"/>
</mask>
<path d="M0 37.2099C0 37.3885 0.144664 37.533 0.323087 37.533H8.34162C8.34328 37.533 8.34466 37.534 8.34631 37.534H11.3026C11.4715 40.0254 13.5647 42.0023 16.1201 42.0023C18.6783 42.0023 20.7737 40.0254 20.9428 37.534H23.9668C25.36 37.534 26.4933 36.411 26.4933 35.0307V17.2763C26.4933 14.1322 23.9121 11.5743 20.7393 11.5743H8.6694V3.06933C8.6694 1.37691 7.27956 0 5.57104 0H0.323087C0.144664 0 0 0.144506 0 0.323087V37.2099ZM16.1201 41.3561C13.8109 41.3561 11.9323 39.4965 11.9323 37.2109C11.9323 34.9253 13.8109 33.0656 16.1201 33.0656C18.4322 33.0656 20.3132 34.9253 20.3132 37.2109C20.3132 39.4965 18.4322 41.3561 16.1201 41.3561ZM13.5697 12.2205H20.7393C23.5557 12.2205 25.8471 14.4884 25.8471 17.2763V25.4658H18.3601C15.7186 25.4658 13.5697 23.3412 13.5697 20.7296V12.2205ZM8.6694 12.2205H12.9235V20.7296C12.9235 23.6974 15.3624 26.112 18.3601 26.112H25.8471V29.1715H8.6694V12.2205ZM8.6694 29.8177H25.8471V35.0307C25.8471 36.0548 25.0036 36.8878 23.9668 36.8878H20.9428C20.7737 34.3965 18.6783 32.4195 16.1201 32.4195C13.5647 32.4195 11.4715 34.3965 11.3026 36.8878H8.6694V29.8177ZM0.646174 0.646174H5.57104C6.92318 0.646174 8.02322 1.73312 8.02322 3.06933V11.8974V29.1715H0.646174V0.646174ZM0.646174 29.8177H8.02322V36.8868H0.646174V29.8177ZM41.6789 22.9458H40.0775C39.9691 22.9458 39.8681 23.0001 39.8082 23.0903L35.0731 30.2307L27.8166 32.4813C27.6814 32.5233 27.5892 32.6482 27.5892 32.7899V38.5745C27.5892 38.7531 27.7339 38.8976 27.9123 38.8976H31.6036C31.7665 40.6364 33.2329 42.0023 35.0136 42.0023C36.7943 42.0023 38.2609 40.6364 38.4238 38.8976H41.6774C41.8559 38.8976 42.0005 38.7531 42.0005 38.5745V30.5107C42.0006 30.5082 42.002 30.5062 42.002 30.5037V23.2689C42.002 23.0903 41.8573 22.9458 41.6789 22.9458ZM28.2354 34.4959H28.9242C29.2742 34.4959 29.5592 34.7808 29.5592 35.131C29.5592 35.4809 29.2742 35.7658 28.9242 35.7658H28.2354V34.4959ZM35.0136 41.3561C33.4807 41.3561 32.2335 40.1089 32.2335 38.5758C32.2335 37.043 33.4807 35.7958 35.0136 35.7958C36.5443 35.7958 37.7896 37.0392 37.7935 38.5685C37.7935 38.5707 37.7924 38.5725 37.7924 38.5745C37.7924 38.5769 37.7936 38.5788 37.7937 38.5811C37.7908 40.1117 36.5449 41.3561 35.0136 41.3561ZM41.3544 38.2514H38.4237C38.2596 36.5139 36.7934 35.1496 35.0136 35.1496C33.2338 35.1496 31.7678 36.5139 31.6037 38.2514H28.2354V36.412H28.9242C29.6306 36.412 30.2053 35.8374 30.2053 35.131C30.2053 34.4246 29.6306 33.8497 28.9242 33.8497H28.2354V33.0281L35.3272 30.8283H41.3544V38.2514ZM41.3558 30.1806H35.8818L40.2508 23.592H41.3558V30.1806ZM27.6516 24.7364C27.478 24.7783 27.3712 24.9528 27.413 25.1263L27.9278 27.2655C27.9634 27.4135 28.0958 27.5129 28.2416 27.5129C28.2667 27.5129 28.292 27.51 28.3174 27.5041C28.491 27.4621 28.5978 27.2876 28.556 27.1141L28.0412 24.9749C27.9994 24.8014 27.8246 24.6953 27.6516 24.7364ZM30.9201 25.1825L30.1044 27.2255C30.0383 27.3914 30.1189 27.5791 30.2847 27.6454C30.324 27.6612 30.3645 27.6684 30.4043 27.6684C30.5327 27.6684 30.654 27.5914 30.7045 27.4652L31.5202 25.4223C31.5863 25.2566 31.5057 25.0686 31.3401 25.0023C31.1738 24.9354 30.9862 25.0172 30.9201 25.1825Z" fill="black" stroke="black" stroke-width="20" mask="url(#path-1-inside-1_392_396)"/>
</svg>
