<svg width="30" height="30" viewBox="0 0 30 30" fill="none" xmlns="http://www.w3.org/2000/svg">
<g clip-path="url(#clip0_392_378)">
<mask id="mask0_392_378" style="mask-type:luminance" maskUnits="userSpaceOnUse" x="0" y="0" width="30" height="30">
<path d="M0 0H29.5V29.5H0V0Z" fill="white"/>
</mask>
<g mask="url(#mask0_392_378)">
<path d="M27.9474 8.53943C27.9474 7.76311 27.1711 5.43417 24.8422 5.43417H8.07451C7.00552 5.43417 5.52121 6.82455 4.7348 8.53943L2.329 12.421C1.20101 12.886 0.776367 14.2306 0.776367 15.5263V20.1842C0.776367 21.0077 1.10353 21.7976 1.68588 22.3799C2.26823 22.9623 3.05806 23.2894 3.88163 23.2894H25.6185C26.442 23.2894 27.2319 22.9623 27.8142 22.3799C28.3966 21.7976 28.7237 21.0077 28.7237 20.1842V13.9736C28.7237 13.1764 27.9474 8.53943 27.9474 8.53943Z" fill="#CCD6DD"/>
<path d="M7.7633 18.6315C6.54718 18.632 5.37953 19.1084 4.51009 19.9587C3.64064 20.809 3.13842 21.9657 3.11084 23.1815C3.35848 23.2444 3.61389 23.2894 3.88172 23.2894H12.4212C12.4212 22.0541 11.9305 20.8693 11.0569 19.9958C10.1834 19.1223 8.99865 18.6315 7.7633 18.6315Z" fill="#E1E8ED"/>
<path d="M26.3893 23.1807C26.3749 21.9461 25.8706 20.7678 24.9874 19.905C24.1042 19.0421 22.9144 18.5655 21.6798 18.5799C20.4451 18.5943 19.2668 19.0986 18.404 19.9818C17.5412 20.865 17.0645 22.0548 17.0789 23.2894H25.6184C25.8862 23.2894 26.1416 23.2444 26.3893 23.1807Z" fill="#E1E8ED"/>
<path d="M10.8682 23.2894C10.8682 24.113 10.5411 24.9028 9.95873 25.4851C9.37638 26.0675 8.58655 26.3947 7.76298 26.3947C6.93941 26.3947 6.14957 26.0675 5.56723 25.4851C4.98488 24.9028 4.65771 24.113 4.65771 23.2894C4.65771 22.4658 4.98488 21.676 5.56723 21.0936C6.14957 20.5113 6.93941 20.1841 7.76298 20.1841C8.58655 20.1841 9.37638 20.5113 9.95873 21.0936C10.5411 21.676 10.8682 22.4658 10.8682 23.2894Z" fill="#292F33"/>
<path d="M9.31551 23.2894C9.31546 23.4934 9.27524 23.6953 9.19715 23.8837C9.11905 24.0721 9.00462 24.2433 8.86037 24.3874C8.71612 24.5316 8.54489 24.646 8.35645 24.724C8.16801 24.802 7.96605 24.8421 7.7621 24.842C7.55816 24.842 7.35622 24.8018 7.16782 24.7237C6.97942 24.6456 6.80824 24.5311 6.66407 24.3869C6.51989 24.2427 6.40554 24.0714 6.32754 23.883C6.24954 23.6945 6.20942 23.4926 6.20947 23.2886C6.20958 22.8767 6.3733 22.4818 6.66462 22.1906C6.95594 21.8994 7.35099 21.7359 7.76288 21.736C8.17477 21.7361 8.56974 21.8998 8.86092 22.1911C9.15209 22.4825 9.31561 22.8775 9.31551 23.2894Z" fill="#99AAB5"/>
<path d="M24.8419 23.2894C24.8419 24.113 24.5147 24.9028 23.9324 25.4851C23.35 26.0675 22.5602 26.3947 21.7366 26.3947C20.913 26.3947 20.1232 26.0675 19.5409 25.4851C18.9585 24.9028 18.6313 24.113 18.6313 23.2894C18.6313 22.4658 18.9585 21.676 19.5409 21.0936C20.1232 20.5113 20.913 20.1841 21.7366 20.1841C22.5602 20.1841 23.35 20.5113 23.9324 21.0936C24.5147 21.676 24.8419 22.4658 24.8419 23.2894Z" fill="#292F33"/>
<path d="M23.2891 23.2894C23.2891 23.4934 23.2489 23.6953 23.1708 23.8837C23.0927 24.0721 22.9782 24.2433 22.834 24.3874C22.6898 24.5316 22.5185 24.646 22.3301 24.724C22.1416 24.802 21.9397 24.8421 21.7357 24.842C21.5318 24.842 21.3299 24.8018 21.1415 24.7237C20.9531 24.6456 20.7819 24.5311 20.6377 24.3869C20.4935 24.2427 20.3792 24.0714 20.3012 23.883C20.2232 23.6945 20.1831 23.4926 20.1831 23.2886C20.1832 22.8767 20.3469 22.4818 20.6382 22.1906C20.9296 21.8994 21.3246 21.7359 21.7365 21.736C22.1484 21.7361 22.5434 21.8998 22.8346 22.1911C23.1257 22.4825 23.2892 22.8775 23.2891 23.2894Z" fill="#99AAB5"/>
<path d="M28.7237 17.8552H0.776367V15.5263H28.7237V17.8552Z" fill="#DD2E44"/>
<path d="M24.8419 9.31575H22.5129V6.9868H20.9603V9.31575H18.6313V10.8684H20.9603V13.1973H22.5129V10.8684H24.8419V9.31575Z" fill="#DD2E44"/>
<path d="M6.98661 6.98681H10.8682V12.421H3.88135L6.98661 6.98681Z" fill="#55ACEE"/>
<path d="M12.4211 4.26967C12.4211 4.57851 12.2984 4.8747 12.0801 5.09308C11.8617 5.31146 11.5655 5.43414 11.2567 5.43414H9.70402C9.39519 5.43414 9.099 5.31146 8.88062 5.09308C8.66224 4.8747 8.53955 4.57851 8.53955 4.26967C8.53955 3.96083 8.66224 3.66464 8.88062 3.44626C9.099 3.22788 9.39519 3.1052 9.70402 3.1052H11.2567C11.5655 3.1052 11.8617 3.22788 12.0801 3.44626C12.2984 3.66464 12.4211 3.96083 12.4211 4.26967Z" fill="#DD2E44"/>
<path d="M14.7502 4.26967C14.7502 4.57851 14.6275 4.8747 14.4092 5.09308C14.1908 5.31146 13.8946 5.43414 13.5858 5.43414H12.0331C11.7243 5.43414 11.4281 5.31146 11.2097 5.09308C10.9913 4.8747 10.8687 4.57851 10.8687 4.26967C10.8687 3.96083 10.9913 3.66464 11.2097 3.44626C11.4281 3.22788 11.7243 3.1052 12.0331 3.1052H13.5858C13.8946 3.1052 14.1908 3.22788 14.4092 3.44626C14.6275 3.66464 14.7502 3.96083 14.7502 4.26967Z" fill="#55ACEE"/>
</g>
</g>
<defs>
<clipPath id="clip0_392_378">
<rect width="29.5" height="29.5" fill="white"/>
</clipPath>
</defs>
</svg>
