<svg width="64" height="64" viewBox="0 0 64 64" fill="none" xmlns="http://www.w3.org/2000/svg">
<g clip-path="url(#clip0_392_319)">
<path d="M22.0001 18.86C21.1206 18.4226 20.1597 18.1727 19.1785 18.1262C18.1973 18.0797 17.2171 18.2377 16.3001 18.59C13.4401 19.85 11.3001 25.44 11.5501 29.29C11.8001 33.14 16.1501 44.55 21.4701 48.82C26.7901 53.09 36.2001 55.15 39.2701 51.16C42.3401 47.17 39.8101 46.35 39.8101 46.35C39.8101 46.35 31.2301 41.67 30.4201 42.43C29.6101 43.19 29.2001 45.14 27.9001 45.15C26.6001 45.16 20.9001 40.9 18.8401 34.8C16.7801 28.7 21.2201 30.1 21.9201 29.41C22.6201 28.72 24.0001 19.5 22.0001 18.86Z" fill="#D0D2D3"/>
<path d="M19.4998 30C20.4198 29.59 21.5898 29.73 21.9198 29.4C22.6198 28.71 23.9998 19.48 21.9998 18.84C20.9796 18.3477 19.8627 18.0881 18.7298 18.08C18.4498 21 18.2098 26.14 19.4998 30ZM39.8198 46.35C39.8198 46.35 31.2399 41.67 30.4298 42.43C29.8898 42.94 29.5198 43.98 28.9398 44.61C30.6756 46.412 32.7303 47.8767 34.9998 48.93C36.473 49.7066 38.0537 50.2594 39.6898 50.57C42.0798 47.08 39.8198 46.35 39.8198 46.35Z" fill="#8D9293"/>
<path d="M30.0098 29.93H55.0098V34.93H30.0098V29.93Z" fill="#57565C"/>
<path d="M30.0098 29.93H50.0098V34.93H30.0098V29.93Z" fill="#6D6D70"/>
<path d="M42.51 9.43C41.1303 9.42868 39.7638 9.6993 38.4888 10.2264C37.2137 10.7535 36.055 11.5267 35.0789 12.5018C34.1028 13.477 33.3285 14.6349 32.8002 15.9095C32.2719 17.1841 32 18.5503 32 19.93V29.93H53V19.93C53 17.147 51.8951 14.4778 49.9282 12.5089C47.9612 10.5401 45.293 9.43265 42.51 9.43Z" fill="#D83C39"/>
<path d="M46 18.43H44.5V16.93C44.5 16.6648 44.3946 16.4104 44.2071 16.2229C44.0196 16.0353 43.7652 15.93 43.5 15.93H41.5C41.2348 15.93 40.9804 16.0353 40.7929 16.2229C40.6054 16.4104 40.5 16.6648 40.5 16.93V18.43H39C38.7348 18.43 38.4804 18.5353 38.2929 18.7229C38.1054 18.9104 38 19.1648 38 19.43V21.43C38 21.6952 38.1054 21.9496 38.2929 22.1371C38.4804 22.3246 38.7348 22.43 39 22.43H40.5V23.93C40.5 24.1952 40.6054 24.4496 40.7929 24.6371C40.9804 24.8246 41.2348 24.93 41.5 24.93H43.5C43.7652 24.93 44.0196 24.8246 44.2071 24.6371C44.3946 24.4496 44.5 24.1952 44.5 23.93V22.43H46C46.2652 22.43 46.5196 22.3246 46.7071 22.1371C46.8946 21.9496 47 21.6952 47 21.43V19.43C47 19.1648 46.8946 18.9104 46.7071 18.7229C46.5196 18.5353 46.2652 18.43 46 18.43Z" fill="white"/>
</g>
<defs>
<clipPath id="clip0_392_319">
<rect width="64" height="64" fill="white"/>
</clipPath>
</defs>
</svg>
