<svg width="28" height="30" viewBox="0 0 28 30" fill="none" xmlns="http://www.w3.org/2000/svg">
<path d="M24.988 0.00016293H2.982C2.19116 0.00016293 1.43272 0.336763 0.873512 0.935914C0.314307 1.53507 0.000149108 2.34769 0.000149108 3.19502V26.773C-0.00379193 27.1953 0.0704264 27.6142 0.218513 28.0055C0.366599 28.3968 0.585616 28.7528 0.862899 29.0528C1.14018 29.3529 1.47023 29.5911 1.83396 29.7536C2.1977 29.9162 2.58789 29.9999 2.982 29.9998H24.988C25.3846 30.0041 25.7781 29.9236 26.1453 29.7629C26.5124 29.6023 26.846 29.3647 27.1265 29.0642C27.407 28.7638 27.6286 28.4063 27.7786 28.0129C27.9285 27.6195 28.0037 27.198 27.9997 26.773V3.23974C28.0053 2.81374 27.9313 2.39084 27.7821 1.99593C27.6329 1.60102 27.4114 1.24208 27.1308 0.94022C26.8502 0.638364 26.516 0.399694 26.1481 0.238253C25.7801 0.0768114 25.3857 -0.0041396 24.988 0.00016293ZM6.924 24.2811H4.9202C4.68863 24.2611 4.47258 24.1484 4.31503 23.9655C4.15749 23.7825 4.07001 23.5428 4.07001 23.2938C4.07001 23.0449 4.15749 22.8051 4.31503 22.6222C4.47258 22.4393 4.68863 22.3266 4.9202 22.3066H6.924C7.15557 22.3266 7.37162 22.4393 7.52917 22.6222C7.68671 22.8051 7.77419 23.0449 7.77419 23.2938C7.77419 23.5428 7.68671 23.7825 7.52917 23.9655C7.37162 24.1484 7.15557 24.2611 6.924 24.2811ZM6.924 15.9744H4.9202C4.67504 15.9744 4.43992 15.8701 4.26657 15.6843C4.09321 15.4986 3.99583 15.2467 3.99583 14.984C3.99583 14.7214 4.09321 14.4694 4.26657 14.2837C4.43992 14.098 4.67504 13.9936 4.9202 13.9936H6.924C7.16916 13.9936 7.40428 14.098 7.57763 14.2837C7.75099 14.4694 7.84837 14.7214 7.84837 14.984C7.84837 15.2467 7.75099 15.4986 7.57763 15.6843C7.40428 15.8701 7.16916 15.9744 6.924 15.9744ZM6.924 7.66781H4.9202C4.68863 7.64783 4.47258 7.53517 4.31503 7.35223C4.15749 7.1693 4.07001 6.92951 4.07001 6.6806C4.07001 6.43169 4.15749 6.1919 4.31503 6.00897C4.47258 5.82604 4.68863 5.71337 4.9202 5.69339H6.924C7.15557 5.71337 7.37162 5.82604 7.52917 6.00897C7.68671 6.1919 7.77419 6.43169 7.77419 6.6806C7.77419 6.92951 7.68671 7.1693 7.52917 7.35223C7.37162 7.53517 7.15557 7.64783 6.924 7.66781ZM23.026 24.2491H12.6074C12.4802 24.2601 12.3522 24.2427 12.2315 24.1981C12.1109 24.1534 12.0002 24.0825 11.9064 23.9898C11.8126 23.897 11.7377 23.7845 11.6865 23.6592C11.6353 23.5339 11.6088 23.3987 11.6088 23.2619C11.6088 23.1251 11.6353 22.9899 11.6865 22.8646C11.7377 22.7393 11.8126 22.6268 11.9064 22.534C12.0002 22.4413 12.1109 22.3703 12.2315 22.3257C12.3522 22.2811 12.4802 22.2637 12.6074 22.2747H23.0319C23.1592 22.2637 23.2872 22.2811 23.4078 22.3257C23.5285 22.3703 23.6392 22.4413 23.733 22.534C23.8268 22.6268 23.9017 22.7393 23.9529 22.8646C24.0041 22.9899 24.0305 23.1251 24.0305 23.2619C24.0305 23.3987 24.0041 23.5339 23.9529 23.6592C23.9017 23.7845 23.8268 23.897 23.733 23.9898C23.6392 24.0825 23.5285 24.1534 23.4078 24.1981C23.2872 24.2427 23.1592 24.2601 23.0319 24.2491H23.026ZM23.026 15.9425H12.6074C12.3622 15.9425 12.1271 15.8381 11.9538 15.6524C11.7804 15.4667 11.683 15.2148 11.683 14.9521C11.683 14.6894 11.7804 14.4375 11.9538 14.2518C12.1271 14.066 12.3622 13.9617 12.6074 13.9617H23.0319C23.2771 13.9617 23.5122 14.066 23.6856 14.2518C23.8589 14.4375 23.9563 14.6894 23.9563 14.9521C23.9563 15.2148 23.8589 15.4667 23.6856 15.6524C23.5122 15.8381 23.2771 15.9425 23.0319 15.9425H23.026ZM23.026 7.63586H12.6074C12.4802 7.64684 12.3522 7.62946 12.2315 7.58483C12.1109 7.5402 12.0002 7.46928 11.9064 7.37654C11.8126 7.28379 11.7377 7.17124 11.6865 7.04597C11.6353 6.92069 11.6088 6.78541 11.6088 6.64865C11.6088 6.51189 11.6353 6.37661 11.6865 6.25134C11.7377 6.12607 11.8126 6.01351 11.9064 5.92077C12.0002 5.82803 12.1109 5.75711 12.2315 5.71247C12.3522 5.66784 12.4802 5.65047 12.6074 5.66144H23.0319C23.1592 5.65047 23.2872 5.66784 23.4078 5.71247C23.5285 5.75711 23.6392 5.82803 23.733 5.92077C23.8268 6.01351 23.9017 6.12607 23.9529 6.25134C24.0041 6.37661 24.0305 6.51189 24.0305 6.64865C24.0305 6.78541 24.0041 6.92069 23.9529 7.04597C23.9017 7.17124 23.8268 7.28379 23.733 7.37654C23.6392 7.46928 23.5285 7.5402 23.4078 7.58483C23.2872 7.62946 23.1592 7.64684 23.0319 7.63586H23.026Z" fill="url(#paint0_radial_392_343)"/>
<defs>
<radialGradient id="paint0_radial_392_343" cx="0" cy="0" r="1" gradientUnits="userSpaceOnUse" gradientTransform="translate(14 15) rotate(90) scale(15 14)">
<stop stop-color="#F8ADAD"/>
<stop offset="1" stop-color="#A50000"/>
</radialGradient>
</defs>
</svg>
