<svg width="35" height="30" viewBox="0 0 35 30" fill="none" xmlns="http://www.w3.org/2000/svg">
<g clip-path="url(#paint0_diamond_392_346_clip_path)" data-figma-skip-parse="true"><g transform="matrix(0 0.015 -0.0175 0 17.5 15)"><rect x="0" y="0" width="1066.67" height="1057.14" fill="url(#paint0_diamond_392_346)" opacity="1" shape-rendering="crispEdges"/><rect x="0" y="0" width="1066.67" height="1057.14" transform="scale(1 -1)" fill="url(#paint0_diamond_392_346)" opacity="1" shape-rendering="crispEdges"/><rect x="0" y="0" width="1066.67" height="1057.14" transform="scale(-1 1)" fill="url(#paint0_diamond_392_346)" opacity="1" shape-rendering="crispEdges"/><rect x="0" y="0" width="1066.67" height="1057.14" transform="scale(-1)" fill="url(#paint0_diamond_392_346)" opacity="1" shape-rendering="crispEdges"/></g></g><path d="M35 11.5385V18.4615C34.9992 19.0734 34.7153 19.6599 34.2105 20.0926C33.7058 20.5252 33.0215 20.7685 32.3077 20.7692H24.2308V27.6923C24.23 28.3041 23.946 28.8907 23.4413 29.3233C22.9366 29.7559 22.2523 29.9993 21.5385 30H13.4615C12.7477 29.9993 12.0634 29.7559 11.5587 29.3233C11.054 28.8907 10.77 28.3041 10.7692 27.6923V20.7692H2.69231C1.97851 20.7685 1.29419 20.5252 0.78946 20.0926C0.284732 19.6599 0.000816338 19.0734 0 18.4615V11.5385C0.000816338 10.9266 0.284732 10.3401 0.78946 9.90745C1.29419 9.47482 1.97851 9.23147 2.69231 9.23077H10.7692V2.30769C10.77 1.69587 11.054 1.10931 11.5587 0.67668C12.0634 0.244056 12.7477 0.000699718 13.4615 0H21.5385C22.2523 0.000699718 22.9366 0.244056 23.4413 0.67668C23.946 1.10931 24.23 1.69587 24.2308 2.30769V9.23077H32.3077C33.0215 9.23147 33.7058 9.47482 34.2105 9.90745C34.7153 10.3401 34.9992 10.9266 35 11.5385Z" data-figma-gradient-fill="{&#34;type&#34;:&#34;GRADIENT_DIAMOND&#34;,&#34;stops&#34;:[{&#34;color&#34;:{&#34;r&#34;:0.94551277160644531,&#34;g&#34;:0.65307033061981201,&#34;b&#34;:0.65307033061981201,&#34;a&#34;:1.0},&#34;position&#34;:0.0},{&#34;color&#34;:{&#34;r&#34;:0.73333334922790527,&#34;g&#34;:0.13333334028720856,&#34;b&#34;:0.13333334028720856,&#34;a&#34;:1.0},&#34;position&#34;:1.0}],&#34;stopsVar&#34;:[{&#34;color&#34;:{&#34;r&#34;:0.94551277160644531,&#34;g&#34;:0.65307033061981201,&#34;b&#34;:0.65307033061981201,&#34;a&#34;:1.0},&#34;position&#34;:0.0},{&#34;color&#34;:{&#34;r&#34;:0.73333334922790527,&#34;g&#34;:0.13333334028720856,&#34;b&#34;:0.13333334028720856,&#34;a&#34;:1.0},&#34;position&#34;:1.0}],&#34;transform&#34;:{&#34;m00&#34;:2.1431320581984927e-15,&#34;m01&#34;:-35.0,&#34;m02&#34;:35.0,&#34;m10&#34;:30.0,&#34;m11&#34;:1.8369703053475314e-15,&#34;m12&#34;:-1.8369703053475314e-15},&#34;opacity&#34;:1.0,&#34;blendMode&#34;:&#34;NORMAL&#34;,&#34;visible&#34;:true}"/>
<defs>
<clipPath id="paint0_diamond_392_346_clip_path"><path d="M35 11.5385V18.4615C34.9992 19.0734 34.7153 19.6599 34.2105 20.0926C33.7058 20.5252 33.0215 20.7685 32.3077 20.7692H24.2308V27.6923C24.23 28.3041 23.946 28.8907 23.4413 29.3233C22.9366 29.7559 22.2523 29.9993 21.5385 30H13.4615C12.7477 29.9993 12.0634 29.7559 11.5587 29.3233C11.054 28.8907 10.77 28.3041 10.7692 27.6923V20.7692H2.69231C1.97851 20.7685 1.29419 20.5252 0.78946 20.0926C0.284732 19.6599 0.000816338 19.0734 0 18.4615V11.5385C0.000816338 10.9266 0.284732 10.3401 0.78946 9.90745C1.29419 9.47482 1.97851 9.23147 2.69231 9.23077H10.7692V2.30769C10.77 1.69587 11.054 1.10931 11.5587 0.67668C12.0634 0.244056 12.7477 0.000699718 13.4615 0H21.5385C22.2523 0.000699718 22.9366 0.244056 23.4413 0.67668C23.946 1.10931 24.23 1.69587 24.2308 2.30769V9.23077H32.3077C33.0215 9.23147 33.7058 9.47482 34.2105 9.90745C34.7153 10.3401 34.9992 10.9266 35 11.5385Z"/></clipPath><linearGradient id="paint0_diamond_392_346" x1="0" y1="0" x2="500" y2="500" gradientUnits="userSpaceOnUse">
<stop stop-color="#F1A7A7"/>
<stop offset="1" stop-color="#BB2222"/>
</linearGradient>
</defs>
</svg>
