<svg width="36" height="37" viewBox="0 0 36 37" fill="none" xmlns="http://www.w3.org/2000/svg">
<g clip-path="url(#clip0_392_350)">
<path d="M18 37C27.9411 37 36 28.7173 36 18.5C36 8.28278 27.9411 0 18 0C8.05887 0 0 8.28278 0 18.5C0 28.7173 8.05887 37 18 37Z" fill="#EF4C45"/>
<path d="M19.4402 36.9321C19.9829 36.89 20.5234 36.8226 21.0602 36.7302C21.6514 36.6254 22.2371 36.4904 22.8152 36.3255C23.3935 36.1606 23.9635 35.9661 24.5229 35.7427C25.0823 35.5192 25.6305 35.2671 26.1654 34.9873C26.7 34.7074 27.2207 34.4003 27.7254 34.0669C28.2303 33.734 28.7187 33.3754 29.1887 32.9924C29.659 32.6088 30.1103 32.2013 30.5409 31.7714C30.9711 31.3415 31.3801 30.8897 31.7664 30.4178C32.1536 29.9461 32.5176 29.4547 32.8569 28.9455C33.1958 28.4365 33.5097 27.9104 33.7974 27.3692C34.0848 26.8279 34.3456 26.2722 34.5789 25.7042C34.6106 25.6181 34.6416 25.5317 34.6719 25.4452L24.3137 14.8L22.6629 19.8851L21.6054 19.3417L12.6474 10.1349L10.8827 8.32111L9.11719 10.1349L9.64744 10.6799L10.5077 11.564V27.7515L19.4402 36.9321Z" fill="#DF2209"/>
<path d="M10.8827 8.32114L9.11719 10.1357L9.64744 10.6807L10.5077 9.79652V27.7515H27.9774L27.1172 28.6357L27.6474 29.1807L29.4129 27.3661L27.6474 25.5524L27.1172 26.0973L27.9774 26.9807H11.2577V9.79652L12.1172 10.6807L12.6474 10.1357L10.8827 8.32114ZM24.3137 14.7992L22.6629 19.8852L19.7154 18.3705L17.4654 22.994L14.4654 21.4538L12.7974 24.8817L13.4679 25.2271L14.8007 22.4867L17.8007 24.03L20.0507 19.4034L23.1024 20.9721L24.4517 16.8096L26.2967 20.6021L26.9679 20.2567L24.3137 14.7992ZM15.5837 15.2031L12.9242 17.0246L13.3404 17.666L15.1817 16.4041L15.7764 18.2387L16.6629 20.9721L18.5507 20.0024L18.2154 19.3132L17.1024 19.8852L16.4882 17.9943L15.5837 15.2031ZM19.5309 21.2203L19.5002 24.2381L21.7577 22.691V24.669H24.3827V23.8981H22.5077V21.2511L20.2652 22.7874L20.2809 21.2287L19.5309 21.2203Z" fill="white"/>
</g>
<defs>
<clipPath id="clip0_392_350">
<rect width="36" height="37" fill="white"/>
</clipPath>
</defs>
</svg>
